<mxfile host="65bd71144e">
    <diagram id="DA04OF4BEYIk8r0q3-P3" name="Page-1">
        <mxGraphModel dx="857" dy="617" grid="1" gridSize="10" guides="1" tooltips="1" connect="1" arrows="1" fold="1" page="1" pageScale="1" pageWidth="827" pageHeight="1169" math="0" shadow="0">
            <root>
                <mxCell id="0"/>
                <mxCell id="1" parent="0"/>
                <mxCell id="84" style="rounded=0;sketch=1;orthogonalLoop=1;jettySize=auto;html=1;" edge="1" parent="1" source="86" target="97">
                    <mxGeometry relative="1" as="geometry"/>
                </mxCell>
                <mxCell id="85" style="edgeStyle=none;rounded=0;sketch=1;orthogonalLoop=1;jettySize=auto;html=1;entryX=0;entryY=0.5;entryDx=0;entryDy=0;endArrow=classic;endFill=1;endSize=6;" edge="1" parent="1" source="86" target="105">
                    <mxGeometry relative="1" as="geometry"/>
                </mxCell>
                <mxCell id="86" value="Usager" style="shape=umlActor;verticalLabelPosition=bottom;verticalAlign=top;html=1;sketch=1;" vertex="1" parent="1">
                    <mxGeometry x="80" y="30" width="30" height="60" as="geometry"/>
                </mxCell>
                <mxCell id="87" style="edgeStyle=none;rounded=0;sketch=1;orthogonalLoop=1;jettySize=auto;html=1;entryX=0;entryY=0.5;entryDx=0;entryDy=0;" edge="1" parent="1" source="90" target="100">
                    <mxGeometry relative="1" as="geometry"/>
                </mxCell>
                <mxCell id="88" style="edgeStyle=none;rounded=0;sketch=1;orthogonalLoop=1;jettySize=auto;html=1;entryX=0;entryY=0;entryDx=0;entryDy=0;endArrow=classic;endFill=1;endSize=6;" edge="1" parent="1" source="90" target="106">
                    <mxGeometry relative="1" as="geometry"/>
                </mxCell>
                <mxCell id="89" style="edgeStyle=none;html=1;entryX=0;entryY=0.5;entryDx=0;entryDy=0;" edge="1" parent="1" source="90" target="107">
                    <mxGeometry relative="1" as="geometry"/>
                </mxCell>
                <mxCell id="90" value="Benevole" style="shape=umlActor;verticalLabelPosition=bottom;verticalAlign=top;html=1;sketch=1;" vertex="1" parent="1">
                    <mxGeometry x="70" y="540" width="30" height="60" as="geometry"/>
                </mxCell>
                <mxCell id="91" style="edgeStyle=none;rounded=0;sketch=1;orthogonalLoop=1;jettySize=auto;html=1;entryX=0;entryY=0.5;entryDx=0;entryDy=0;" edge="1" parent="1" source="96" target="98">
                    <mxGeometry relative="1" as="geometry"/>
                </mxCell>
                <mxCell id="92" style="edgeStyle=none;rounded=0;sketch=1;orthogonalLoop=1;jettySize=auto;html=1;entryX=0;entryY=0.5;entryDx=0;entryDy=0;" edge="1" parent="1" source="96" target="99">
                    <mxGeometry relative="1" as="geometry"/>
                </mxCell>
                <mxCell id="93" style="edgeStyle=none;rounded=0;sketch=1;orthogonalLoop=1;jettySize=auto;html=1;entryX=0;entryY=0.5;entryDx=0;entryDy=0;" edge="1" parent="1" source="96" target="101">
                    <mxGeometry relative="1" as="geometry"/>
                </mxCell>
                <mxCell id="94" style="edgeStyle=none;rounded=0;sketch=1;orthogonalLoop=1;jettySize=auto;html=1;entryX=0.5;entryY=0;entryDx=0;entryDy=0;endArrow=classic;endFill=1;endSize=6;" edge="1" parent="1" source="96" target="104">
                    <mxGeometry relative="1" as="geometry"/>
                </mxCell>
                <mxCell id="95" style="edgeStyle=none;rounded=0;sketch=1;orthogonalLoop=1;jettySize=auto;html=1;entryX=0.5;entryY=0;entryDx=0;entryDy=0;entryPerimeter=0;endArrow=block;endFill=1;endSize=15;" edge="1" parent="1" source="96" target="90">
                    <mxGeometry relative="1" as="geometry"/>
                </mxCell>
                <mxCell id="96" value="&lt;div&gt;Personnel&lt;/div&gt;" style="shape=umlActor;verticalLabelPosition=bottom;verticalAlign=top;html=1;sketch=1;" vertex="1" parent="1">
                    <mxGeometry x="80" y="240" width="30" height="60" as="geometry"/>
                </mxCell>
                <mxCell id="97" value="Rechercher des documents" style="ellipse;whiteSpace=wrap;html=1;sketch=1;" vertex="1" parent="1">
                    <mxGeometry x="360" y="30" width="140" height="70" as="geometry"/>
                </mxCell>
                <mxCell id="98" value="Inscription de nouveaux usagers" style="ellipse;whiteSpace=wrap;html=1;sketch=1;" vertex="1" parent="1">
                    <mxGeometry x="290" y="150" width="140" height="70" as="geometry"/>
                </mxCell>
                <mxCell id="99" value="Gerer le fond documentaire" style="ellipse;whiteSpace=wrap;html=1;sketch=1;" vertex="1" parent="1">
                    <mxGeometry x="490" y="200" width="140" height="70" as="geometry"/>
                </mxCell>
                <mxCell id="100" value="Enregistrer un emprunt" style="ellipse;whiteSpace=wrap;html=1;sketch=1;" vertex="1" parent="1">
                    <mxGeometry x="320" y="560" width="140" height="70" as="geometry"/>
                </mxCell>
                <mxCell id="101" value="Consulter la fiche d'un usager" style="ellipse;whiteSpace=wrap;html=1;sketch=1;" vertex="1" parent="1">
                    <mxGeometry x="530" y="320" width="140" height="70" as="geometry"/>
                </mxCell>
                <mxCell id="102" value="extends" style="edgeStyle=none;rounded=0;sketch=1;orthogonalLoop=1;jettySize=auto;html=1;entryX=1;entryY=0.5;entryDx=0;entryDy=0;" edge="1" parent="1" source="103" target="100">
                    <mxGeometry relative="1" as="geometry"/>
                </mxCell>
                <mxCell id="103" value="Enregistrer une caution" style="ellipse;whiteSpace=wrap;html=1;sketch=1;" vertex="1" parent="1">
                    <mxGeometry x="540" y="620" width="140" height="70" as="geometry"/>
                </mxCell>
                <mxCell id="104" value="Enregistrer la cotisation pour un usager" style="ellipse;whiteSpace=wrap;html=1;sketch=1;" vertex="1" parent="1">
                    <mxGeometry x="140" y="320" width="140" height="70" as="geometry"/>
                </mxCell>
                <mxCell id="105" value="Payer la&amp;nbsp; cotisation" style="ellipse;whiteSpace=wrap;html=1;sketch=1;" vertex="1" parent="1">
                    <mxGeometry x="170" y="80" width="140" height="70" as="geometry"/>
                </mxCell>
                <mxCell id="106" value="Voir les postes disponibles" style="ellipse;whiteSpace=wrap;html=1;sketch=1;" vertex="1" parent="1">
                    <mxGeometry x="160" y="650" width="140" height="70" as="geometry"/>
                </mxCell>
                <mxCell id="107" value="Enregistrer un retour de documents" style="ellipse;whiteSpace=wrap;html=1;" vertex="1" parent="1">
                    <mxGeometry x="570" y="430" width="140" height="70" as="geometry"/>
                </mxCell>
            </root>
        </mxGraphModel>
    </diagram>
</mxfile>